<?xml version="1.0" encoding="utf-8"?>
<!-- Generator: Adobe Illustrator 19.0.0, SVG Export Plug-In . SVG Version: 6.00 Build 0)  -->
<svg version="1.1" id="Capa_1" xmlns="http://www.w3.org/2000/svg" xmlns:xlink="http://www.w3.org/1999/xlink" x="0px" y="0px"
	 viewBox="0 0 100 80" style="enable-background:new 0 0 100 80;" xml:space="preserve">
<style type="text/css">
	.st0{display:none;}
	.st1{fill:#EC871F;}
</style>
<title>cloud-icon-03</title>
<g id="ui_x5F_spec_x5F_header">
</g>
<g id="ui_x5F_spec_x5F_header_1_">
</g>
<g id="ui_x5F_spec_x5F_header_2_">
</g>
<g id="ui_x5F_spec_x5F_header_3_">
</g>
<g id="ui_x5F_spec_x5F_header_4_" class="st0">
</g>
<g id="ui_x5F_spec_x5F_header_5_" class="st0">
</g>
<g id="ui_x5F_spec_x5F_header_6_">
</g>
<g id="ui_x5F_spec_x5F_header_7_">
</g>
<g id="ui_x5F_spec_x5F_header_8_" class="st0">
</g>
<g id="ui_x5F_spec_x5F_header_10_">
</g>
<g id="ui_x5F_spec_x5F_header_9_">
</g>
<g id="ui_x5F_spec_x5F_header_11_">
</g>
<g id="ui_x5F_spec_x5F_header_12_">
</g>
<g id="ui_x5F_spec_x5F_header_13_">
</g>
<g id="ui_x5F_spec_x5F_header_14_" class="st0">
</g>
<g id="ui_x5F_spec_x5F_header_15_">
</g>
<g id="ui_x5F_spec_x5F_header_16_">
</g>
<g id="ui_x5F_spec_x5F_header_17_">
</g>
<g id="ui_x5F_spec_x5F_header_18_">
</g>
<g id="ui_x5F_spec_x5F_header_19_" class="st0">
</g>
<g id="ui_x5F_spec_x5F_header_20_">
</g>
<g id="ui_x5F_spec_x5F_header_21_">
</g>
<g id="ui_x5F_spec_x5F_header_22_">
</g>
<g id="ui_x5F_spec_x5F_header_23_">
</g>
<g id="ui_x5F_spec_x5F_header_24_">
</g>
<g id="ui_x5F_spec_x5F_header_25_">
</g>
<g id="ui_x5F_spec_x5F_header_26_">
</g>
<g id="ui_x5F_spec_x5F_header_27_" class="st0">
</g>
<g>
	<path class="st1" d="M56.7,6.7H30c-3.7,0-6.6,3-6.6,6.7l0,53.3c0,3.7,3,6.7,6.6,6.7h40c3.7,0,6.7-3,6.7-6.7v-40L56.7,6.7z M70,66.7
		H30V13.3h23.9L70,29.4V66.7z"/>
	<path class="st1" d="M38.2,35.2l-3.9-3.9v12h12l-4.8-4.8c1.7-3.4,5.3-5.7,9.3-5.7c5.8,0,10.5,4.7,10.5,10.5
		c0,5.8-4.7,10.5-10.5,10.5c-3.6,0-6.7-1.8-8.6-4.5H37c2.3,5.3,7.6,9,13.7,9c8.3,0,15-6.7,15-15s-6.7-15-15-15
		C45.4,28.3,40.8,31.1,38.2,35.2z"/>
</g>
</svg>
