<?xml version="1.0" encoding="utf-8"?>
<!-- Generator: Adobe Illustrator 19.0.0, SVG Export Plug-In . SVG Version: 6.00 Build 0)  -->
<svg version="1.1" id="Capa_1" xmlns="http://www.w3.org/2000/svg" xmlns:xlink="http://www.w3.org/1999/xlink" x="0px" y="0px"
	 viewBox="0 0 100 80" style="enable-background:new 0 0 100 80;" xml:space="preserve">
<style type="text/css">
	.st0{display:none;}
	.st1{fill:#EC871F;}
</style>
<title>cloud-icon-03</title>
<g id="ui_x5F_spec_x5F_header">
</g>
<g id="ui_x5F_spec_x5F_header_1_">
</g>
<g id="ui_x5F_spec_x5F_header_2_">
</g>
<g id="ui_x5F_spec_x5F_header_3_">
</g>
<g id="ui_x5F_spec_x5F_header_4_" class="st0">
</g>
<g id="ui_x5F_spec_x5F_header_5_" class="st0">
</g>
<g id="ui_x5F_spec_x5F_header_6_">
</g>
<g id="ui_x5F_spec_x5F_header_7_">
</g>
<g id="ui_x5F_spec_x5F_header_8_" class="st0">
</g>
<g id="ui_x5F_spec_x5F_header_10_">
</g>
<g id="ui_x5F_spec_x5F_header_9_">
</g>
<g id="ui_x5F_spec_x5F_header_11_">
</g>
<g id="ui_x5F_spec_x5F_header_12_">
</g>
<g id="ui_x5F_spec_x5F_header_13_">
</g>
<g id="ui_x5F_spec_x5F_header_14_" class="st0">
</g>
<g id="ui_x5F_spec_x5F_header_15_">
</g>
<g id="ui_x5F_spec_x5F_header_16_">
</g>
<g id="ui_x5F_spec_x5F_header_17_">
</g>
<g id="ui_x5F_spec_x5F_header_18_">
</g>
<g id="ui_x5F_spec_x5F_header_19_" class="st0">
</g>
<g id="ui_x5F_spec_x5F_header_20_">
</g>
<g id="ui_x5F_spec_x5F_header_21_">
</g>
<g id="ui_x5F_spec_x5F_header_22_">
</g>
<g id="ui_x5F_spec_x5F_header_23_">
</g>
<g id="ui_x5F_spec_x5F_header_24_">
</g>
<g id="ui_x5F_spec_x5F_header_25_">
</g>
<g id="ui_x5F_spec_x5F_header_26_">
</g>
<g id="ui_x5F_spec_x5F_header_27_" class="st0">
</g>
<g id="ui_x5F_spec_x5F_header_28_">
</g>
<g id="ui_x5F_spec_x5F_header_29_">
</g>
<g id="ui_x5F_spec_x5F_header_30_">
</g>
<g>
	<path class="st1" d="M50,6.7C31.6,6.7,16.7,21.6,16.7,40S31.6,73.3,50,73.3S83.3,58.4,83.3,40S68.4,6.7,50,6.7z M50,66.7
		c-6.2,0-11.9-2.1-16.4-5.7C35,57.9,43.7,55,50,55s15,2.9,16.4,5.9C61.9,64.5,56.2,66.7,50,66.7z M71.2,56.1
		c-4.8-5.8-16.3-7.8-21.2-7.8s-16.4,2-21.2,7.8c-3.4-4.5-5.5-10-5.5-16.1c0-14.7,12-26.7,26.7-26.7s26.7,12,26.7,26.7
		C76.7,46.1,74.6,51.6,71.2,56.1z"/>
	<path class="st1" d="M50,20c-6.5,0-11.7,5.2-11.7,11.7S43.5,43.3,50,43.3s11.7-5.2,11.7-11.7S56.5,20,50,20z M50,36.7
		c-2.8,0-5-2.2-5-5s2.2-5,5-5s5,2.2,5,5S52.8,36.7,50,36.7z"/>
</g>
</svg>
