<?xml version="1.0" encoding="utf-8"?>
<!-- Generator: Adobe Illustrator 19.0.0, SVG Export Plug-In . SVG Version: 6.00 Build 0)  -->
<svg version="1.1" id="Capa_1" xmlns="http://www.w3.org/2000/svg" xmlns:xlink="http://www.w3.org/1999/xlink" x="0px" y="0px"
	 viewBox="0 0 100 80" style="enable-background:new 0 0 100 80;" xml:space="preserve">
<style type="text/css">
	.st0{display:none;}
	.st1{fill:#EC871F;}
</style>
<title>cloud-icon-03</title>
<g id="ui_x5F_spec_x5F_header">
</g>
<g id="ui_x5F_spec_x5F_header_1_">
</g>
<g id="ui_x5F_spec_x5F_header_2_">
</g>
<g id="ui_x5F_spec_x5F_header_3_">
</g>
<g id="ui_x5F_spec_x5F_header_4_" class="st0">
</g>
<g id="ui_x5F_spec_x5F_header_5_" class="st0">
</g>
<g>
	<path class="st1" d="M75,11.7l-5-5l-5,5l-5-5l-5,5l-5-5l-5,5l-5-5l-5,5l-5-5l-5,5l-5-5v66.7l5-5l5,5l5-5l5,5l5-5l5,5l5-5l5,5l5-5
		l5,5l5-5l5,5V6.7L75,11.7z M73.3,63.6H26.7V16.4h46.7V63.6z"/>
	<rect x="30" y="50" class="st1" width="40" height="6.7"/>
	<rect x="30" y="36.7" class="st1" width="40" height="6.7"/>
	<rect x="30" y="23.3" class="st1" width="40" height="6.7"/>
</g>
</svg>
