<?xml version="1.0" encoding="utf-8"?>
<!-- Generator: Adobe Illustrator 19.0.0, SVG Export Plug-In . SVG Version: 6.00 Build 0)  -->
<svg version="1.1" id="Capa_1" xmlns="http://www.w3.org/2000/svg" xmlns:xlink="http://www.w3.org/1999/xlink" x="0px" y="0px"
	 viewBox="0 0 100 80" style="enable-background:new 0 0 100 80;" xml:space="preserve">
<style type="text/css">
	.st0{display:none;}
	.st1{fill:#EC871F;}
</style>
<title>cloud-icon-03</title>
<g id="ui_x5F_spec_x5F_header">
</g>
<g id="ui_x5F_spec_x5F_header_1_">
</g>
<g id="ui_x5F_spec_x5F_header_2_">
</g>
<g id="ui_x5F_spec_x5F_header_3_">
</g>
<g id="ui_x5F_spec_x5F_header_4_" class="st0">
</g>
<g id="ui_x5F_spec_x5F_header_5_" class="st0">
</g>
<g id="ui_x5F_spec_x5F_header_6_">
</g>
<g id="ui_x5F_spec_x5F_header_7_">
</g>
<g id="ui_x5F_spec_x5F_header_8_" class="st0">
</g>
<g id="ui_x5F_spec_x5F_header_10_">
</g>
<g id="ui_x5F_spec_x5F_header_9_">
</g>
<g id="ui_x5F_spec_x5F_header_11_">
</g>
<g id="ui_x5F_spec_x5F_header_12_">
</g>
<g id="ui_x5F_spec_x5F_header_13_">
</g>
<g id="ui_x5F_spec_x5F_header_14_" class="st0">
</g>
<g id="ui_x5F_spec_x5F_header_15_">
</g>
<g id="ui_x5F_spec_x5F_header_16_">
</g>
<g id="ui_x5F_spec_x5F_header_17_">
</g>
<g id="ui_x5F_spec_x5F_header_18_">
</g>
<g id="ui_x5F_spec_x5F_header_19_" class="st0">
</g>
<g id="ui_x5F_spec_x5F_header_20_">
</g>
<g id="ui_x5F_spec_x5F_header_21_">
</g>
<g id="ui_x5F_spec_x5F_header_22_">
</g>
<g id="ui_x5F_spec_x5F_header_23_">
</g>
<g id="ui_x5F_spec_x5F_header_24_">
</g>
<g id="ui_x5F_spec_x5F_header_25_">
</g>
<g id="ui_x5F_spec_x5F_header_26_">
</g>
<g id="ui_x5F_spec_x5F_header_27_" class="st0">
</g>
<g id="ui_x5F_spec_x5F_header_28_">
</g>
<path class="st1" d="M80,59.7L54.4,34.1c2.6-6.6,1.3-14.4-4.1-19.7c-6.5-6.5-16.6-7.1-23.8-1.8l10.8,10.9l-4,4L22.6,16.6
	c-5.2,7.2-4.7,17.3,1.8,23.7c5.2,5.2,12.9,6.6,19.4,4.2l25.7,25.7c1.1,1.1,2.9,1.1,4,0l6.5-6.5C81.2,62.6,81.2,60.8,80,59.7z
	 M71.6,64.2L44.9,37.5c-1.7,1.3-3.6,2-5.6,2.3c-3.8,0.6-7.9-0.6-10.8-3.5c-2.7-2.7-3.9-6.2-3.7-9.7l8.7,8.7l12-12l-8.7-8.7
	c3.5-0.2,7,1,9.7,3.7c3,3,4.2,7.2,3.5,11.2c-0.3,2-1.2,3.9-2.5,5.5l26.6,26.6L71.6,64.2z"/>
</svg>
