<?xml version="1.0" encoding="utf-8"?>
<!-- Generator: Adobe Illustrator 19.0.0, SVG Export Plug-In . SVG Version: 6.00 Build 0)  -->
<svg version="1.1" id="Capa_1" xmlns="http://www.w3.org/2000/svg" xmlns:xlink="http://www.w3.org/1999/xlink" x="0px" y="0px"
	 viewBox="0 0 100 80" style="enable-background:new 0 0 100 80;" xml:space="preserve">
<style type="text/css">
	.st0{display:none;}
	.st1{fill:#EC871F;}
</style>
<title>cloud-icon-03</title>
<g id="ui_x5F_spec_x5F_header">
</g>
<g id="ui_x5F_spec_x5F_header_1_">
</g>
<g id="ui_x5F_spec_x5F_header_2_">
</g>
<g id="ui_x5F_spec_x5F_header_3_">
</g>
<g id="ui_x5F_spec_x5F_header_4_" class="st0">
</g>
<g id="ui_x5F_spec_x5F_header_5_" class="st0">
</g>
<g id="ui_x5F_spec_x5F_header_6_">
</g>
<g id="ui_x5F_spec_x5F_header_7_">
</g>
<g id="ui_x5F_spec_x5F_header_8_" class="st0">
</g>
<g id="ui_x5F_spec_x5F_header_10_">
</g>
<g id="ui_x5F_spec_x5F_header_9_">
</g>
<g id="ui_x5F_spec_x5F_header_11_">
</g>
<g id="ui_x5F_spec_x5F_header_12_">
</g>
<g id="ui_x5F_spec_x5F_header_13_">
</g>
<g id="ui_x5F_spec_x5F_header_14_" class="st0">
</g>
<g id="ui_x5F_spec_x5F_header_15_">
</g>
<g id="ui_x5F_spec_x5F_header_16_">
</g>
<g id="ui_x5F_spec_x5F_header_17_">
</g>
<g id="ui_x5F_spec_x5F_header_18_">
</g>
<g id="ui_x5F_spec_x5F_header_19_" class="st0">
</g>
<g id="ui_x5F_spec_x5F_header_20_">
</g>
<g id="ui_x5F_spec_x5F_header_21_">
</g>
<g id="ui_x5F_spec_x5F_header_22_">
</g>
<g id="ui_x5F_spec_x5F_header_23_">
</g>
<g id="ui_x5F_spec_x5F_header_24_">
</g>
<g id="ui_x5F_spec_x5F_header_25_">
</g>
<g id="ui_x5F_spec_x5F_header_26_">
</g>
<g id="ui_x5F_spec_x5F_header_27_" class="st0">
</g>
<g id="ui_x5F_spec_x5F_header_28_">
</g>
<g id="ui_x5F_spec_x5F_header_29_">
</g>
<g>
	<path class="st1" d="M73.3,13.3H70V6.7h-6.7v6.7H36.7V6.7H30v6.7h-3.3c-3.7,0-6.7,3-6.7,6.7v46.7c0,3.7,3,6.7,6.7,6.7h46.7
		c3.7,0,6.7-3,6.7-6.7V20C80,16.3,77,13.3,73.3,13.3z M73.3,66.7H26.7V33.3h46.7V66.7z M73.3,26.7H26.7V20h46.7V26.7z"/>
	<polygon class="st1" points="65,41.8 61.4,38.2 45.2,54.5 38.2,47.4 34.6,51 45.2,61.5 	"/>
</g>
</svg>
