<?xml version="1.0" encoding="utf-8"?>
<!-- Generator: Adobe Illustrator 19.0.0, SVG Export Plug-In . SVG Version: 6.00 Build 0)  -->
<svg version="1.1" id="Capa_1" xmlns="http://www.w3.org/2000/svg" xmlns:xlink="http://www.w3.org/1999/xlink" x="0px" y="0px"
	 viewBox="0 0 100 80" style="enable-background:new 0 0 100 80;" xml:space="preserve">
<style type="text/css">
	.st0{display:none;}
	.st1{fill:#EC871F;}
</style>
<title>cloud-icon-03</title>
<g id="ui_x5F_spec_x5F_header">
</g>
<g id="ui_x5F_spec_x5F_header_1_">
</g>
<g id="ui_x5F_spec_x5F_header_2_">
</g>
<g id="ui_x5F_spec_x5F_header_3_">
</g>
<g id="ui_x5F_spec_x5F_header_4_" class="st0">
</g>
<g id="ui_x5F_spec_x5F_header_5_" class="st0">
</g>
<g id="ui_x5F_spec_x5F_header_6_">
</g>
<g id="ui_x5F_spec_x5F_header_7_">
</g>
<g id="ui_x5F_spec_x5F_header_8_" class="st0">
</g>
<g id="ui_x5F_spec_x5F_header_10_">
</g>
<g id="ui_x5F_spec_x5F_header_9_">
</g>
<g id="ui_x5F_spec_x5F_header_11_">
</g>
<g id="ui_x5F_spec_x5F_header_12_">
</g>
<g id="ui_x5F_spec_x5F_header_13_">
</g>
<g id="ui_x5F_spec_x5F_header_14_" class="st0">
</g>
<g id="ui_x5F_spec_x5F_header_15_">
</g>
<g id="ui_x5F_spec_x5F_header_16_">
</g>
<g id="ui_x5F_spec_x5F_header_17_">
</g>
<g id="ui_x5F_spec_x5F_header_18_">
</g>
<g id="ui_x5F_spec_x5F_header_19_" class="st0">
</g>
<g id="ui_x5F_spec_x5F_header_20_">
</g>
<g id="ui_x5F_spec_x5F_header_21_">
</g>
<g>
	<path class="st1" d="M40,45.8c-7.8,0-23.3,3.9-23.3,11.7v5.8h46.7v-5.8C63.3,49.7,47.8,45.8,40,45.8z M24.5,56.7
		c2.8-1.9,9.6-4.2,15.5-4.2s12.7,2.2,15.5,4.2H24.5z"/>
	<path class="st1" d="M40,40c6.4,0,11.7-5.2,11.7-11.7c0-6.4-5.2-11.7-11.7-11.7s-11.7,5.2-11.7,11.7C28.3,34.8,33.6,40,40,40z
		 M40,23.3c2.8,0,5,2.2,5,5s-2.2,5-5,5s-5-2.2-5-5S37.2,23.3,40,23.3z"/>
	<path class="st1" d="M63.5,46c3.9,2.8,6.5,6.5,6.5,11.5v5.8h13.3v-5.8C83.3,50.8,71.7,46.9,63.5,46z"/>
	<path class="st1" d="M60,40c6.4,0,11.7-5.2,11.7-11.7c0-6.4-5.2-11.7-11.7-11.7c-1.8,0-3.5,0.4-5,1.2c2.1,3,3.3,6.6,3.3,10.5
		c0,3.9-1.2,7.5-3.3,10.5C56.5,39.6,58.2,40,60,40z"/>
</g>
</svg>
